<svg xmlns:xlink="http://www.w3.org/1999/xlink" xmlns="http://www.w3.org/2000/svg" class="css-ze2te4 css-qd6ojx" viewBox="0 0 45 46.016440224497046" width="110"  height="110" ><g transform="translate(-8.105652879774622, -7.491856571754551) scale(0.6764638688030036)" class="css-1owship" fill="#e5cfe6"><path xmlns="http://www.w3.org/2000/svg" d="M78.2,75.2C67.7,57.8,57.2,40.4,46.6,23c1.5-2.7,3-5.5,4.5-8.2c1.5-2.8-2.8-5.3-4.3-2.5c-1.1,1.9-2.1,3.9-3.2,5.8  c-1.2-1.9-2.3-3.9-3.5-5.8c-1.7-2.8-6-0.2-4.3,2.5c1.7,2.8,3.4,5.6,5,8.4c-9.5,17.4-19,34.7-28.5,52.1c-0.9,1.6,0.2,3.8,2.2,3.8  c20.5,0,41,0,61.5,0C77.9,79,79.1,76.9,78.2,75.2z M40.1,41.9C34.2,52.6,28.4,63.3,22.5,74c-1.3,0-2.5,0-3.8,0  c8.4-15.3,16.8-30.6,25.2-45.9C53.1,43.4,62.3,58.7,71.6,74c-8.9,0-17.9,0-26.8,0c0-10.3,0-20.6,0-30.8  C44.7,40.7,41.3,39.7,40.1,41.9z" fill="#e5cfe6"></path></g></svg>