<?xml version="1.0" encoding="utf-8"?>
<!-- Generator: Adobe Illustrator 26.5.0, SVG Export Plug-In . SVG Version: 6.00 Build 0)  -->
<svg version="1.1" id="Capa_1" xmlns="http://www.w3.org/2000/svg" xmlns:xlink="http://www.w3.org/1999/xlink" x="0px" y="0px"
	 viewBox="0 0 110 110" style="enable-background:new 0 0 110 110;" xml:space="preserve">
<style type="text/css">
	.st0{fill:#E5CFE6;}
</style>
<g transform="translate(-8.105652879774622, -7.491856571754551) scale(0.6764638688030036)">
	<path class="st0" d="M172.1,164.4C147,122.8,121.9,81.2,96.5,39.6c3.6-6.5,7.2-13.1,10.8-19.6c3.6-6.7-6.7-12.7-10.3-6
		c-2.6,4.5-5,9.3-7.6,13.9c-2.9-4.5-5.5-9.3-8.4-13.9c-4.1-6.7-14.3-0.5-10.3,6c4.1,6.7,8.1,13.4,12,20.1
		C60,81.7,37.2,123,14.5,164.6c-2.2,3.8,0.5,9.1,5.3,9.1c49,0,98,0,147,0C171.4,173.4,174.2,168.4,172.1,164.4z M81,84.8
		c-14.1,25.6-28,51.2-42.1,76.7c-3.1,0-6,0-9.1,0C49.9,124.9,70,88.3,90.1,51.8c22,36.6,44,73.1,66.2,109.7c-21.3,0-42.8,0-64.1,0
		c0-24.6,0-49.2,0-73.6C92,81.9,83.9,79.5,81,84.8z"/>
</g>
</svg>
